<svg xmlns="http://www.w3.org/2000/svg" viewBox="0 0 64 64">
  <title>Artboard 1</title>
  <rect width="64" height="64" fill="#fff"/>
  <g>
    <path d="M48.69722,16.808V15.42607a11.78892,11.78892,0,0,0-4.81017-9.499,11.739,11.739,0,0,1,2.36417,7.07713V16.808H43.79907V13.0042a11.79931,11.79931,0,0,0-23.59862,0V16.808H1V58.30069a4.49449,4.49449,0,0,0,4.49466,4.49442H58.50534A4.49449,4.49449,0,0,0,63,58.30069V16.808ZM22.646,13.0042A9.35039,9.35039,0,0,1,32,3.65065a9.56378,9.56378,0,0,1,9.35355,9.35355V16.808H27.54413V15.42607a9.35,9.35,0,0,1,9.35355-9.35355,8.86865,8.86865,0,0,1,1.28568.09531,8.93406,8.93406,0,0,0-3.7312-.82188,9.33435,9.33435,0,0,0-7.61755,3.92656,11.72862,11.72862,0,0,0-1.73647,6.15284V16.808H22.646Z"/>
    <g>
      <rect x="19" y="26.79511" width="12" height="12" fill="#f25022"/>
      <rect x="33" y="26.79511" width="12" height="12" fill="#7fba00"/>
      <rect x="19" y="40.79511" width="12" height="12" fill="#00a4ef"/>
      <rect x="33" y="40.79511" width="12" height="12" fill="#ffb900"/>
    </g>
  </g>
</svg>
